<?xml version="1.0" encoding="UTF-8" standalone="no"?>
<svg
   width="1024"
   height="1024"
   viewBox="0 0 1024 1024"
   version="1.1"
   id="svg6"
   sodipodi:docname="icon.svg"
   inkscape:version="1.4.2 (f4327f4, 2025-05-13)"
   xmlns:inkscape="http://www.inkscape.org/namespaces/inkscape"
   xmlns:sodipodi="http://sodipodi.sourceforge.net/DTD/sodipodi-0.dtd"
   xmlns="http://www.w3.org/2000/svg"
   xmlns:svg="http://www.w3.org/2000/svg">
  <sodipodi:namedview
     id="namedview6"
     pagecolor="#505050"
     bordercolor="#ffffff"
     borderopacity="1"
     inkscape:showpageshadow="0"
     inkscape:pageopacity="0"
     inkscape:pagecheckerboard="1"
     inkscape:deskcolor="#505050"
     inkscape:zoom="0.53378276"
     inkscape:cx="399.03874"
     inkscape:cy="338.15255"
     inkscape:window-width="1920"
     inkscape:window-height="991"
     inkscape:window-x="-9"
     inkscape:window-y="-9"
     inkscape:window-maximized="1"
     inkscape:current-layer="svg6" />
  <defs
     id="defs2">
    <linearGradient
       id="gradient_0"
       gradientUnits="userSpaceOnUse"
       x1="411.95496"
       y1="449.4874"
       x2="100.05254"
       y2="147.22577"
       gradientTransform="matrix(2.329229,0,0,2.329229,-84.339538,-83.314244)">
      <stop
         offset="0"
         stop-color="#B3CEF1"
         id="stop1" />
      <stop
         offset="1"
         stop-color="#E9F7F6"
         id="stop2" />
    </linearGradient>
  </defs>
  <path
     fill="url(#gradient_0)"
     d="m 674.84939,158.33396 c -0.55203,-10.67393 0.0187,-21.58217 0.0932,-32.30105 0.37035,-52.861859 88.24517,-67.453781 88.1916,8.7735 l -0.0536,23.52755 c 11.03356,-0.49845 25.54698,-0.0326 36.79949,-0.014 l 63.42025,-0.28416 c 36.61548,-0.3424 68.82172,17.87218 88.52934,48.56676 14.9187,23.23639 15.13533,47.25307 15.12601,73.72476 0.65452,7.6026 0.014,23.13856 -0.004,31.3654 l 0.0396,498.4131 c 0.0256,14.8861 0.6452,27.95074 -2.12425,42.89274 -7.31844,39.49908 -44.84698,73.11916 -84.72804,76.56876 -14.61591,1.26476 -32.34135,0.37966 -47.50463,0.37267 l -650.58396,0.0256 C 148.31113,930.0052 121.3906,931.7428 93.409572,907.4303 52.434655,871.82573 58.233039,831.91207 58.287542,783.62948 l 0.03308,-400.03577 c 0.01514,-3.71514 1.682169,-31.78002 1.401031,-32.38095 l -1.404525,-0.45653 C 59.649909,298.91691 47.750343,232.846 83.445779,192.49676 126.18364,144.19041 204.10288,161.39456 264.30645,158.96052 c 0.0489,-29.23392 -1.19721,-78.554651 43.53563,-75.849019 46.60788,2.819071 41.98901,43.714269 41.90749,75.222459 z"
     id="path2"
     style="fill:url(#gradient_0);stroke-width:2.32923" />
  <defs
     id="defs4">
    <linearGradient
       id="gradient_1"
       gradientUnits="userSpaceOnUse"
       x1="256.39441"
       y1="187.38759"
       x2="255.41579"
       y2="71.242393"
       gradientTransform="matrix(2.329229,0,0,2.329229,-84.339538,-83.314244)">
      <stop
         offset="0"
         stop-color="#6FAEFD"
         id="stop3" />
      <stop
         offset="1"
         stop-color="#85D7FB"
         id="stop4" />
    </linearGradient>
  </defs>
  <path
     fill="url(#gradient_1)"
     d="m 674.84939,158.33396 c -0.55203,-10.67393 0.0187,-21.58217 0.0932,-32.30105 0.37035,-52.861859 88.24517,-67.453781 88.1916,8.7735 l -0.0536,23.52755 c 11.03356,-0.49845 25.54698,-0.0326 36.79949,-0.014 l 63.42025,-0.28416 c 36.61548,-0.3424 68.82172,17.87218 88.52934,48.56676 14.9187,23.23639 15.13533,47.25307 15.12601,73.72476 -0.60793,22.43979 0.002,47.69096 0,70.4289 l -888.364946,-0.0419 c -3.480567,-0.009 -17.885219,-0.35638 -20.273611,0.0419 1.332786,-51.83932 -10.56678,-117.91023 25.128656,-158.25947 42.737861,-48.30635 120.657101,-31.1022 180.860671,-33.53624 0.0489,-29.23392 -1.19721,-78.554651 43.53563,-75.849019 46.60788,2.819071 41.98901,43.714269 41.90749,75.222459 z"
     id="path4"
     style="fill:url(#gradient_1);stroke-width:2.32923" />
  <path
     fill="#ffffff"
     d="m 484.55137,657.66477 c 51.19412,-0.0443 112.46916,-10.32548 116.08179,59.69814 2.67163,51.82069 -7.22992,79.80172 -64.0864,81.97722 l -37.53787,0.028 c -57.31533,0.028 -82.76682,-16.66097 -80.90809,-77.95464 1.2834,-42.33373 25.60987,-63.07086 66.45057,-63.74867 z"
     id="path5"
     style="stroke-width:2.32923" />
  <defs
     id="defs6">
    <linearGradient
       id="gradient_2"
       gradientUnits="userSpaceOnUse"
       x1="385.0159"
       y1="257.96625"
       x2="306.49762"
       y2="257.26602"
       gradientTransform="matrix(2.329229,0,0,2.329229,-84.339538,-83.314244)">
      <stop
         offset="0"
         stop-color="#CCE3F1"
         id="stop5" />
      <stop
         offset="1"
         stop-color="#EFF3F3"
         id="stop6" />
    </linearGradient>
  </defs>
  <path
     fill="url(#gradient_2)"
     d="m 697.96233,445.53023 33.57351,-0.0443 c 23.16651,0.009 34.13951,-1.08309 54.01249,13.59571 31.67052,23.39245 37.24204,72.61605 13.05534,103.24308 -15.43115,19.53991 -29.04316,23.31325 -52.48919,26.29001 l -32.53234,0.0605 c -24.71079,-0.0233 -42.4339,0.0768 -61.88529,-16.82169 -46.18396,-40.12097 -19.76584,-122.27055 46.26548,-126.32341 z"
     id="path6"
     style="fill:url(#gradient_2);stroke-width:2.32923" />
</svg>
